Coordinates
version=1
nRows=10
nColumns=33
inDegrees=yes

Units are S.I. units (second, meters, Newtons, ...)
Angles are in degrees.

endheader
time	ground_thorax_rot_x	ground_thorax_rot_y	ground_thorax_rot_z	ground_thorax_tx	ground_thorax_ty	ground_thorax_tz	clav_prot_r	clav_elev_r	scapula_abduction_r	scapula_elevation_r	scapula_upward_rot_r	scapula_winging_r	shoulder_elv_r	plane_of_elev_r	axial_rot_r	elbow_flexion_r	pro_sup_r	wrist_flex_r	wrist_dev_r	clav_prot_l	clav_elev_l	scapula_abduction_l	scapula_elevation_l	scapula_upward_rot_l	scapula_winging_l	shoulder_elv_l	plane_of_elev_l	axial_rot_l	elbow_flexion_l	pro_sup_l	wrist_flex_l	wrist_dev_l
      8.87000000	    -39.07770289	    -15.34243254	     23.92902913	   -230.58853333	    836.62430471	     -7.70391271	      5.94500374	    -45.00000000	     38.12888661	    -45.00000000	    -34.88455126	  -2262.12331296	  -2627.57279444	    147.57390892	   -110.97852200	   1107.24751740	   -226.54791730	     13.33132855	      4.81339197	     15.17701723	     37.87538897	    -37.29991321	    -45.00000000	    -45.00000000	   2244.97975355	  -2611.69573520	    134.20485376	   -179.99999979	   -347.90637961	    392.70589882	      3.84621326	    -21.35576405
      8.88000000	    -39.19210404	    -15.12322927	     23.71710840	   -232.31756850	    837.07927972	     -7.74310237	      5.92076393	    -45.00000000	     38.05290647	    -45.00000000	    -34.96653617	  -2262.18386255	  -2627.55534828	    147.61662219	   -110.97985476	   1107.16900137	   -226.88690899	     13.29054077	      4.91271102	     15.08071986	     37.94368672	    -37.27159812	    -45.00000000	    -45.00000000	   2244.96973846	  -2611.61323834	    134.28587749	   -179.99999979	   -347.82407288	    393.58110942	      3.68766391	    -21.35838969
      8.89000000	    -39.25541307	    -15.01595132	     23.51287562	   -234.02538360	    837.51151832	     -7.78107271	      5.96469997	    -45.00000000	     38.03532764	    -45.00000000	    -35.22610721	  -2262.23504609	  -2627.48443729	    147.56847655	   -110.93893374	   1107.15902613	   -227.32171921	     13.27727593	      4.95690189	     15.10332544	     37.83953555	    -37.15700530	    -45.00000000	    -45.00000000	   2245.04423795	  -2611.61584095	    134.27521794	   -179.99999979	   -347.82077182	    394.53448264	      3.46129219	    -21.27916622
      8.90000000	    -39.34712095	    -14.84271825	     23.31814532	   -235.71568512	    837.92294769	     -7.81934742	      5.95358242	    -45.00000000	     37.95992634	    -45.00000000	    -35.35418823	  -2262.29907428	  -2627.47114582	    147.60589700	   -110.94704384	   1107.09076578	   -227.80794422	     13.24281115	      5.04044604	     15.04045472	     37.86082632	    -37.09735688	    -45.00000000	    -45.00000000	   2245.05826911	  -2611.57541675	    134.32936210	   -179.99999979	   -347.74973956	    395.52247277	      3.28107516	    -21.25549098
      8.91000000	    -39.46185322	    -14.63374789	     23.05331635	   -237.39312403	    838.31617220	     -7.85969558	      5.92357821	    -45.00000000	     37.92213060	    -45.00000000	    -35.48224402	  -2262.30843426	  -2627.47577824	    147.68207660	   -111.05294364	   1106.86695149	   -228.31144779	     13.20497944	      5.18344016	     14.89096885	     38.00683574	    -37.06708176	    -45.00000000	    -45.00000000	   2244.90764840	  -2611.54546990	    134.53391884	   -179.99999979	   -347.74548793	    396.52157610	      3.17088972	    -21.27381207
      8.92000000	    -39.53699211	    -14.52325571	     22.85824799	   -239.05227787	    838.69143979	     -7.90369167	      5.96424184	    -45.00000000	     37.82139182	    -45.00000000	    -35.78707154	  -2262.37592724	  -2627.39935059	    147.51774878	   -110.98042682	   1106.89935334	   -228.91598973	     13.20524352	      5.19546648	     14.97197266	     37.80970978	    -36.94041253	    -45.00000000	    -45.00000000	   2245.11444940	  -2611.44822486	    134.39361685	   -179.99999979	   -347.67394357	    397.49291384	      2.88658953	    -21.14358569
      8.93000000	    -39.58140424	    -14.40674539	     22.69165669	   -240.69928797	    839.05128848	     -7.95282669	      5.99064744	    -45.00000000	     37.81166944	    -45.00000000	    -35.93841198	  -2262.45478452	  -2627.35779727	    147.57418261	   -111.04639247	   1106.90061915	   -229.60212996	     13.16640397	      5.23422679	     14.93364336	     37.79780276	    -36.83637581	    -45.00000000	    -45.00000000	   2245.12394534	  -2611.47764194	    134.43084880	   -179.99999979	   -347.60546898	    398.60726693	      2.72778463	    -21.11604467
      8.94000000	    -39.71212516	    -14.15447040	     22.35090590	   -242.33206761	    839.39522173	     -8.00799086	      5.93726286	    -45.00000000	     37.71508870	    -45.00000000	    -36.11297863	  -2262.41777406	  -2627.37098620	    147.52274835	   -111.10326759	   1106.57938047	   -230.22245960	     13.15670924	      5.39015371	     14.77101501	     37.93626948	    -36.77985502	    -45.00000000	    -45.00000000	   2244.96274083	  -2611.34661771	    134.55407922	   -179.99999979	   -347.72350591	    399.63685440	      2.61300410	    -21.09414556
      8.95000000	    -39.74810376	    -14.09498770	     22.27837390	   -243.94407787	    839.72002232	     -8.06902443	      5.97740017	    -45.00000000	     37.63539589	    -45.00000000	    -36.33877924	  -2262.55108457	  -2627.30712431	    147.49903360	   -111.12076324	   1106.70719364	   -230.93982386	     13.16574712	      5.33837575	     14.89293511	     37.70074749	    -36.65806967	    -45.00000000	    -45.00000000	   2245.21118644	  -2611.33656277	    134.40826339	   -179.99999979	   -347.55273774	    400.65977473	      2.34425268	    -20.96403317
      8.96000000	    -39.79966248	    -13.98823503	     22.11102448	   -245.54514352	    840.02401156	     -8.13552901	      6.00868789	    -45.00000000	     37.62490524	    -45.00000000	    -36.55796882	  -2262.61490330	  -2627.25918389	    147.52099264	   -111.23327290	   1106.65780592	   -231.68677411	     13.11841149	      5.39634259	     14.79294908	     37.76644218	    -36.56643284	    -45.00000000	    -45.00000000	   2245.18280239	  -2611.33678075	    134.54637071	   -179.99999979	   -347.42071051	    401.81634458	      2.20316274	    -20.96923555
